<svg xmlns="http://www.w3.org/2000/svg" width="212" height="42" viewBox="0 0 212 42" fill="none"><path d="M0.271484 16.1952V32.4147L7.24005 36.421C11.0764 38.6306 14.7185 40.7187 15.3741 41.1072L16.5396 41.7628V40.3788V38.9705L9.61955 34.9642L2.69955 30.9822V19.8616V8.76532L3.54938 9.25094L4.3992 9.76083V19.8616L4.42348 29.9867L9.20678 32.7304C11.8291 34.2358 14.5728 35.7897 15.277 36.2025L16.5396 36.9552V33.0946L16.5153 29.2582L13.7473 27.68L10.955 26.1017V22.2654V18.429L11.5134 18.7204C11.8048 18.8904 13.8444 20.0558 16.0539 21.3184C18.2392 22.6053 20.1574 23.6251 20.3031 23.6251C20.4245 23.6251 22.5369 22.4596 24.9892 21.0514L29.4083 18.4776V22.3382V26.1746L26.6889 27.7528L23.9452 29.3311L23.8723 33.1431C23.848 35.3041 23.8966 36.9067 24.018 36.8581C24.1394 36.8338 26.8831 35.2556 30.1125 33.4102L35.9641 30.0109V19.9344V9.83368L36.9353 9.27522L37.9066 8.71676V19.8373V30.9579L30.9137 34.9642L23.9452 38.9948L23.8723 40.4031C23.8238 41.1801 23.8966 41.7628 24.018 41.7385C24.1151 41.69 27.7815 39.5775 32.152 37.0523L40.0918 32.4876V16.2438C40.0918 7.30848 40.019 -7.09295e-06 39.9461 -7.09295e-06C39.8733 -7.09295e-06 35.4299 2.52518 30.0882 5.60883C21.4443 10.6107 20.3031 11.1934 19.8174 10.9749C19.5018 10.8292 15.0584 8.30399 9.95948 5.34175C4.88482 2.40378 0.611414 -7.09295e-06 0.490011 -7.09295e-06C0.368607 -7.09295e-06 0.271484 6.89571 0.271484 16.1952ZM37.858 5.94876C37.5666 6.19157 20.4002 16.0253 20.2788 16.0253C20.1817 16.0253 16.1753 13.7671 11.392 10.9991L2.69955 5.99732V5.0261C2.69955 4.29768 2.7724 4.10343 3.03948 4.20055C3.23373 4.2734 7.19148 6.5315 11.8048 9.22666L20.2545 14.0828L29.0198 9.03241L37.7852 3.98203L37.858 4.92898C37.9066 5.43887 37.9066 5.9002 37.858 5.94876ZM13.8444 15.1997C18.5791 17.9434 20.3516 18.8661 20.643 18.6961C20.8615 18.5747 23.8723 16.8508 27.3445 14.8355L33.6574 11.1934L33.7303 12.0675C33.7788 12.5774 33.6817 13.063 33.4875 13.233C33.1476 13.5486 20.473 20.8814 20.2545 20.8814C20.1817 20.8814 17.1466 19.1575 13.4802 17.045L6.82727 13.233V12.1889C6.82727 11.4362 6.90012 11.1934 7.11864 11.3148C7.28861 11.4119 10.2994 13.1601 13.8444 15.1997ZM8.76973 22.3625V27.6314L11.5134 29.2097L14.2329 30.7636L14.3057 31.8077C14.3543 32.3662 14.2814 32.7789 14.16 32.7547C14.0386 32.7061 12.339 31.7349 10.3965 30.5937L6.82727 28.5541V22.2654V16.001L7.7985 16.5351L8.76973 17.0936V22.3625ZM33.7788 22.2654L33.7546 28.5298L30.0639 30.6422L26.3732 32.7547L26.3004 32.0262C26.2518 31.6135 26.2761 31.1278 26.349 30.9579C26.3975 30.7879 27.6601 29.9624 29.1412 29.1125L31.8364 27.5829V22.2897V16.9965L32.7591 16.5351C33.2447 16.2681 33.6817 16.0495 33.7303 16.0253C33.7546 16.0253 33.7788 18.8418 33.7788 22.2654Z" fill="white"></path><path d="M206.958 31.4153C207.529 30.8605 208.228 30.5831 209.056 30.5831C209.885 30.5831 210.584 30.8605 211.155 31.4153C211.718 31.9701 211.999 32.6455 211.999 33.4415C211.999 34.2374 211.718 34.9128 211.155 35.4676C210.584 36.0224 209.885 36.2998 209.056 36.2998C208.228 36.2998 207.529 36.0224 206.958 35.4676C206.387 34.9128 206.102 34.2374 206.102 33.4415C206.102 32.6455 206.387 31.9701 206.958 31.4153ZM209.056 35.7329C209.724 35.7329 210.279 35.5118 210.721 35.0696C211.171 34.6194 211.396 34.0766 211.396 33.4415C211.396 32.7982 211.171 32.2515 210.721 31.8012C210.279 31.359 209.724 31.1379 209.056 31.1379C208.381 31.1379 207.822 31.359 207.38 31.8012C206.93 32.2515 206.705 32.7982 206.705 33.4415C206.705 34.0766 206.93 34.6194 207.38 35.0696C207.822 35.5118 208.381 35.7329 209.056 35.7329ZM210.202 34.0204L210.238 34.4666C210.246 34.6435 210.295 34.8003 210.383 34.9369H209.84C209.768 34.8405 209.728 34.6837 209.72 34.4666L209.696 34.153C209.679 33.9842 209.639 33.8676 209.575 33.8033C209.519 33.7389 209.418 33.7068 209.273 33.7068H208.441V34.9369H207.911V31.8736H209.213C209.551 31.8736 209.812 31.95 209.997 32.1027C210.19 32.2475 210.287 32.4565 210.287 32.7299C210.287 33.0837 210.138 33.3249 209.84 33.4535C210.057 33.5339 210.178 33.7229 210.202 34.0204ZM208.441 33.2244H209.261C209.583 33.2244 209.744 33.0796 209.744 32.7902C209.744 32.5007 209.567 32.356 209.213 32.356H208.441V33.2244Z" fill="#FFFFFB"></path><path d="M196.529 29.822V38.3447H201.327V39.3631H195.404V29.822H196.529Z" fill="#FFFFFB"></path><path d="M190.569 39.3631H189.377L188.264 36.5892H183.923L182.824 39.3631H181.645L185.45 29.822H186.71L190.569 39.3631ZM184.365 35.4636L184.325 35.5708H187.862L187.809 35.4502C187.585 34.9052 187.005 33.4356 186.067 31.0414C185.432 32.7388 184.865 34.2129 184.365 35.4636Z" fill="#FFFFFB"></path><path d="M175.698 33.0381V29.822H176.81V39.3631H175.443L172.281 34.4452C171.369 32.9979 170.708 31.9214 170.297 31.2156C170.324 32.4663 170.338 34.1101 170.338 36.147V39.3631H169.225V29.822H170.592L173.755 34.74C174.666 36.1872 175.327 37.2637 175.738 37.9695C175.711 36.7188 175.698 35.075 175.698 33.0381Z" fill="#FFFFFB"></path><path d="M162.62 38.1973C161.78 39.1175 160.672 39.5775 159.296 39.5775C157.921 39.5775 156.817 39.1175 155.986 38.1973C155.147 37.295 154.727 36.0934 154.727 34.5926C154.727 33.1006 155.147 31.8946 155.986 30.9744C156.817 30.0632 157.921 29.6076 159.296 29.6076C160.672 29.6076 161.78 30.0632 162.62 30.9744C163.451 31.9035 163.866 33.1096 163.866 34.5926C163.866 36.0845 163.451 37.2861 162.62 38.1973ZM156.831 37.4737C157.447 38.1884 158.269 38.5457 159.296 38.5457C160.324 38.5457 161.146 38.1884 161.762 37.4737C162.378 36.7679 162.687 35.8075 162.687 34.5926C162.687 33.3776 162.378 32.4172 161.762 31.7115C161.146 30.9968 160.324 30.6394 159.296 30.6394C158.269 30.6394 157.447 30.9968 156.831 31.7115C156.214 32.4172 155.906 33.3776 155.906 34.5926C155.906 35.8075 156.214 36.7679 156.831 37.4737Z" fill="#FFFFFB"></path><path d="M149.368 39.3631H148.243V29.822H149.368V39.3631Z" fill="#FFFFFB"></path><path d="M135.558 29.822H143.21V30.8404H139.967V39.3631H138.801V30.8404H135.558V29.822Z" fill="#FFFFFB"></path><path d="M133.002 39.3631H131.809L130.697 36.5892H126.355L125.257 39.3631H124.077L127.883 29.822H129.143L133.002 39.3631ZM126.798 35.4636L126.757 35.5708H130.295L130.242 35.4502C130.018 34.9052 129.438 33.4356 128.5 31.0414C127.865 32.7388 127.298 34.2129 126.798 35.4636Z" fill="#FFFFFB"></path><path d="M118.131 33.0381V29.822H119.243V39.3631H117.876L114.714 34.4452C113.802 32.9979 113.141 31.9214 112.73 31.2156C112.757 32.4663 112.77 34.1101 112.77 36.147V39.3631H111.658V29.822H113.025L116.188 34.74C117.099 36.1872 117.76 37.2637 118.171 37.9695C118.144 36.7188 118.131 35.075 118.131 33.0381Z" fill="#FFFFFB"></path><path d="M105.983 36.6026L106.077 38.1437C106.122 38.6797 106.238 39.0862 106.426 39.3631H105.26C105.063 39.0773 104.96 38.6529 104.951 38.0901L104.911 37.0716C104.884 36.4284 104.742 35.9728 104.482 35.7048C104.223 35.4279 103.799 35.2894 103.209 35.2894H100.1V39.3631H98.9749V29.822H103.008C103.991 29.822 104.773 30.0498 105.353 30.5054C105.943 30.961 106.238 31.5998 106.238 32.4217C106.238 33.0024 106.095 33.4937 105.809 33.8957C105.532 34.2888 105.152 34.5658 104.67 34.7266C105.474 34.9767 105.912 35.6021 105.983 36.6026ZM100.1 34.2709H103.142C103.741 34.2709 104.21 34.1191 104.549 33.8153C104.898 33.5027 105.072 33.0604 105.072 32.4887C105.072 31.9437 104.889 31.5328 104.523 31.2558C104.165 30.9789 103.661 30.8404 103.008 30.8404H100.1V34.2709Z" fill="#FFFFFB"></path><path d="M93.7492 29.822V30.8404H88.2416V33.8823H93.2132V34.9008H88.2416V38.3447H93.6956V39.3631H87.116V29.822H93.7492Z" fill="#FFFFFB"></path><path d="M74.4316 29.822H82.0833V30.8404H78.8404V39.3631H77.6746V30.8404H74.4316V29.822Z" fill="#FFFFFB"></path><path d="M68.2871 33.0381V29.822H69.3994V39.3631H68.0325L64.87 34.4452C63.9588 32.9979 63.2977 31.9214 62.8867 31.2156C62.9135 32.4663 62.9269 34.1101 62.9269 36.147V39.3631H61.8147V29.822H63.1815L66.3441 34.74C67.2553 36.1872 67.9164 37.2637 68.3273 37.9695C68.3005 36.7188 68.2871 35.075 68.2871 33.0381Z" fill="#FFFFFB"></path><path d="M56.0544 39.3631H54.9287V29.822H56.0544V39.3631Z" fill="#FFFFFB"></path><path d="M152.536 2.33135C148.845 3.32686 146.101 6.02201 144.936 9.78552C144.28 11.9951 144.402 15.71 145.203 17.7739C146.296 20.5904 148.699 22.9942 151.492 24.0626C153.216 24.7182 156.882 24.961 158.873 24.5482C161.86 23.9169 165.016 21.5859 166.327 18.9879C167.978 15.7586 167.978 10.951 166.327 7.72166C165.599 6.31338 163.438 4.07956 162.029 3.32686C159.553 1.99142 155.449 1.55437 152.536 2.33135ZM158.97 6.99324C160.257 7.64882 161.617 9.22707 162.078 10.6353C162.564 12.0436 162.564 14.6659 162.078 16.0742C161.228 18.6237 158.752 20.3962 156.032 20.3962C151.807 20.3962 148.918 16.6084 149.646 11.9951C150.059 9.27563 151.662 7.35745 154.211 6.53191C155.255 6.19198 157.902 6.43479 158.97 6.99324Z" fill="white"></path><path d="M53.2034 13.3548V24.5239H55.6314H58.0595L58.1081 17.0212L58.1809 9.51845L61.0946 17.0212L64.0083 24.5239H65.1252H66.2664L67.4076 21.5374C68.0632 19.9106 69.3743 16.5598 70.3455 14.0832L72.118 9.59129V17.0455L72.1423 24.5239H74.6918H77.2413V13.3548V2.1614L73.7934 2.23424L70.3213 2.30708L67.7718 8.91143C66.3635 12.5293 65.1495 15.4429 65.0766 15.3458C65.0038 15.2487 63.7898 12.2622 62.43 8.66862L59.9291 2.18568H56.5541H53.2034V13.3548Z" fill="white"></path><path d="M81.8545 13.3548V24.5239H89.7457H97.6369V22.3387V20.1534H92.2952H86.9534V17.7253V15.2973H92.1738H97.3941V13.112V10.9267H92.1738H86.9534V8.74147V6.5562H92.2952H97.6369V4.37094V2.18568H89.7457H81.8545V13.3548Z" fill="white"></path><path d="M101.765 13.3548V24.5239H104.193H106.621L106.67 17.5068L106.742 10.4897L111.841 17.5068L116.94 24.4996L119.32 24.5239H121.675V13.3548V2.18568H119.247H116.819L116.77 8.88715L116.698 15.6129L111.744 8.88715L106.815 2.18568H104.29H101.765V13.3548Z" fill="white"></path><path d="M125.074 4.37094V6.5562H128.352H131.63V15.5401V24.5239H134.058H136.486V15.5401V6.5562H139.643H142.799V4.37094V2.18568H133.937H125.074V4.37094Z" fill="white"></path><path d="M171.208 13.3305V24.5239H173.757H176.306V20.639V16.7298L177.933 16.8027L179.56 16.8755L181.624 20.6876L183.712 24.4996L186.601 24.5239C188.787 24.5239 189.442 24.4511 189.345 24.2083C189.297 24.0626 188.18 22.1687 186.893 20.032L184.562 16.1471L185.485 15.71C187.791 14.5446 188.957 12.6749 189.127 9.93122C189.321 6.62905 188.058 4.32238 185.339 2.98694L183.955 2.30708L177.593 2.23424L171.208 2.13712V13.3305ZM181.867 6.70189C182.304 6.79901 182.959 7.1875 183.372 7.57599C184.805 9.03283 184.028 11.558 181.94 12.1408C181.454 12.2622 179.973 12.3836 178.686 12.3836H176.306V9.46989V6.5562H178.71C180.021 6.5562 181.454 6.62905 181.867 6.70189Z" fill="white"></path><path d="M190.656 3.08406C190.972 3.59396 192.89 6.58048 194.93 9.71269L198.645 15.4187V19.9591V24.5239H201.073H203.501V20.0563V15.5886L207.75 9.03283C210.081 5.41501 211.999 2.4042 211.999 2.33136C211.999 2.25852 210.761 2.18568 209.231 2.18568H206.463L203.841 6.45908C201.364 10.4654 201.194 10.7082 200.83 10.2711C200.636 10.0041 199.422 8.08589 198.159 5.99775L195.852 2.20996L192.987 2.18568H190.098L190.656 3.08406Z" fill="white"></path></svg>